# xmcd CD database file
#
# Track frame offsets:
#	183
#	13168
#	26995
#	43335
#	54893
#	64328
#	75630
#	86615
#	97070
#	112628
#	125353
#	141528
#	154553
#	166253
#	178865
#	191803
#	202435
#	215618
#	225953
#	240958
#	252445
#	263828
#	279143
#	289888
#	300273
#
# Disc length: 4060 seconds
#
# Revision: 3
# Processed by: cddbd v1.5.2PL0 Copyright (c) Steve Scherf et al.
# Submitted via: CDex 1.40Release
#
DISCID=640fda19
DTITLE=Yveta Simonova a Milan Chladil - O nas dvou.....
DYEAR=1990
DGENRE=Oldies
TTITLE0=My dva a cas
TTITLE1=Kdyz jarni vanek zacal vat
TTITLE2=O nas dvou
TTITLE3=Deti z Pirea
TTITLE4=Prima den
TTITLE5=Slunce a poledni zar
TTITLE6=Sladke hlouposti
TTITLE7=Ty jsi ma laska
TTITLE8=Rekni ano, lasko ma
TTITLE9=Zazrak nebo klam
TTITLE10=S certem si hrat
TTITLE11=Uz dozraval len
TTITLE12=Krasny roman
TTITLE13=Mou laskou dej se vest
TTITLE14=Bila plaz
TTITLE15=Kdokoli, cokoli, kamkoli
TTITLE16=Chrante svou lasku
TTITLE17=Nam to nevadi
TTITLE18=V pravou chvili
TTITLE19=K vam jdem, k vam
TTITLE20=Ding a dong
TTITLE21=Ja lasku vrele odmitam
TTITLE22=Az na severni pol
TTITLE23=Ven
TTITLE24=My dva a cas - zaver
EXTD=YEAR: 1990
EXTT0=
EXTT1=
EXTT2=
EXTT3=
EXTT4=
EXTT5=
EXTT6=
EXTT7=
EXTT8=
EXTT9=
EXTT10=
EXTT11=
EXTT12=
EXTT13=
EXTT14=
EXTT15=
EXTT16=
EXTT17=
EXTT18=
EXTT19=
EXTT20=
EXTT21=
EXTT22=
EXTT23=
EXTT24=
PLAYORDER=
